<svg width="274" height="60" viewBox="0 0 274 60" fill="none" xmlns="http://www.w3.org/2000/svg">
<path d="M26.9736 28.6289H47.166C47.2064 28.8913 47.2266 29.1738 47.2266 29.4766C47.2467 29.7793 47.2568 30.2435 47.2568 30.8691C47.2568 37.5091 45.3597 42.8877 41.5654 47.0049C37.7712 51.1221 32.8669 53.1807 26.8525 53.1807C19.9704 53.1807 14.2992 50.9909 9.83887 46.6113C5.37858 42.2116 3.14844 36.6312 3.14844 29.8701C3.14844 23.1696 5.38867 17.6296 9.86914 13.25C14.3496 8.87044 20.0107 6.68066 26.8525 6.68066C30.4652 6.68066 33.7751 7.4375 36.7822 8.95117C39.7894 10.4648 42.4736 12.7253 44.835 15.7324L38.4473 20.4551C36.8529 18.4772 35.1777 17.0544 33.4219 16.1865C31.666 15.2985 29.6377 14.8545 27.3369 14.8545C22.9574 14.8545 19.4557 16.2168 16.832 18.9414C14.2083 21.666 12.8965 25.3089 12.8965 29.8701C12.8965 34.3506 14.2083 37.9733 16.832 40.7383C19.4759 43.4831 22.917 44.8555 27.1553 44.8555C30.2633 44.8555 32.7861 44.1289 34.7236 42.6758C36.6611 41.2025 37.6299 39.2852 37.6299 36.9238V36.4395H26.9736V28.6289ZM67.0264 52L50.6484 7.67969H61.123L69.751 35.3193C69.9124 35.8844 70.1647 36.9339 70.5078 38.4678C70.8509 40.0016 71.2142 41.7474 71.5977 43.7051C71.86 41.8079 72.1426 40.1227 72.4453 38.6494C72.7682 37.1761 73.0811 35.9652 73.3838 35.0166L82.1328 7.67969H92.4863L75.9873 52H67.0264ZM94.3037 52V8.58789H103.81L116.282 36.833L128.785 8.58789H138.442V52H129.754V31.6562L120.46 52H111.923L102.932 31.7168V52H94.3037Z" fill="#E7E515"/>
<path d="M155.848 25.0352C154.41 25.0352 153.172 24.5508 152.133 23.582C151.07 22.6055 150.488 21.4141 150.387 20.0078V8.19531H153.773V19.9609C153.773 20.4609 153.973 20.875 154.371 21.2031C154.777 21.5234 155.27 21.6836 155.848 21.6836C156.434 21.6836 156.93 21.5039 157.336 21.1445C157.742 20.7852 157.945 20.3906 157.945 19.9609V8.19531H161.332V20.0078C161.215 21.4141 160.633 22.6055 159.586 23.582C158.531 24.5508 157.285 25.0352 155.848 25.0352ZM164.152 25V8.19531H169.824C171.254 8.3125 172.465 8.90234 173.457 9.96484C174.441 11.0352 174.934 12.3008 174.934 13.7617C174.934 15.2227 174.441 16.4844 173.457 17.5469C172.465 18.6016 171.254 19.1914 169.824 19.3164H167.516V25H164.152ZM167.516 15.8711H169.777C170.285 15.7773 170.703 15.5312 171.031 15.1328C171.367 14.7344 171.535 14.2773 171.535 13.7617C171.535 13.2305 171.367 12.7656 171.031 12.3672C170.703 11.9844 170.285 11.7422 169.777 11.6406H167.516V15.8711ZM194.441 15.168C194.512 15.6289 194.547 16.1016 194.547 16.5859C194.547 18.9219 193.719 20.9102 192.062 22.5508C190.422 24.207 188.434 25.0352 186.098 25.0352C183.777 25.0352 181.789 24.207 180.133 22.5508C178.492 20.9102 177.672 18.9219 177.672 16.5859C177.672 14.2656 178.492 12.2773 180.133 10.6211C181.789 8.98047 183.777 8.16016 186.098 8.16016C188.434 8.16016 190.422 8.98047 192.062 10.6211C192.75 11.3086 193.297 12.0547 193.703 12.8594H189.648C188.68 11.9297 187.512 11.4648 186.145 11.4648C184.723 11.4648 183.508 11.9648 182.5 12.9648C181.508 13.9727 181.012 15.1797 181.012 16.5859C181.012 18.0078 181.508 19.2227 182.5 20.2305C183.508 21.2305 184.723 21.7305 186.145 21.7305C187.559 21.7305 188.762 21.2305 189.754 20.2305C190.27 19.7148 190.656 19.1406 190.914 18.5078H186.578V15.168H194.441ZM197.309 25V8.19531H204.117C205.539 8.3125 206.738 8.89844 207.715 9.95312C208.707 11.0234 209.203 12.2852 209.203 13.7383C209.203 14.8711 208.879 15.9062 208.23 16.8438C207.598 17.7656 206.77 18.4336 205.746 18.8477L209.344 25H205.699L200.637 16.4688V25H197.309ZM200.637 15.8359H204.082C204.582 15.7422 204.996 15.4961 205.324 15.0977C205.652 14.707 205.816 14.2539 205.816 13.7383C205.816 13.207 205.652 12.7461 205.324 12.3555C204.996 11.957 204.582 11.7109 204.082 11.6172H200.637V15.8359ZM222.523 18.4727L220.602 12.9297C220.547 12.7656 220.477 12.4844 220.391 12.0859C220.305 11.6875 220.215 11.1992 220.121 10.6211C220.02 11.1758 219.922 11.6758 219.828 12.1211C219.734 12.5586 219.664 12.8516 219.617 13L217.766 18.4727H222.523ZM211.602 25L218.129 7.84375H222.324L228.945 25H224.773L223.379 21.3555H216.734L215.539 25H211.602ZM236.523 25H231.215V8.19531H236.523C238.852 8.19531 240.836 9.01953 242.477 10.668C244.125 12.3086 244.949 14.2852 244.949 16.5977C244.949 18.918 244.125 20.9023 242.477 22.5508C240.836 24.1836 238.852 25 236.523 25ZM236.43 11.4766H234.531V21.6953H236.43C237.836 21.6953 239.031 21.1953 240.016 20.1953C241.008 19.1953 241.504 17.9961 241.504 16.5977C241.504 15.1992 241.008 13.9961 240.016 12.9883C239.031 11.9805 237.836 11.4766 236.43 11.4766ZM247.723 25V8.19531H256.547V11.4766H251.051V15.168H256.547V18.5078H251.051V21.6953H256.547V25H247.723ZM264.793 8.16016C265.434 8.16016 266.039 8.27344 266.609 8.5C267.18 8.72656 267.684 9.04688 268.121 9.46094C268.566 9.875 268.922 10.3711 269.188 10.9492C269.461 11.5273 269.625 12.2422 269.68 13.0938H266.223C266.223 12.5625 266.09 12.1719 265.824 11.9219C265.559 11.6719 265.188 11.5469 264.711 11.5469C264.305 11.5469 263.984 11.6562 263.75 11.875C263.516 12.0938 263.398 12.3711 263.398 12.707C263.398 13.168 263.531 13.5391 263.797 13.8203C264.062 14.0938 264.516 14.3203 265.156 14.5C266.867 15.0156 268.113 15.6875 268.895 16.5156C269.676 17.3359 270.066 18.4258 270.066 19.7852C270.066 20.582 269.926 21.3086 269.645 21.9648C269.371 22.6133 268.992 23.168 268.508 23.6289C268.023 24.082 267.457 24.4297 266.809 24.6719C266.16 24.9141 265.465 25.0352 264.723 25.0352C264.012 25.0352 263.336 24.9141 262.695 24.6719C262.055 24.4297 261.496 24.0859 261.02 23.6406C260.543 23.1875 260.156 22.6523 259.859 22.0352C259.57 21.418 259.398 20.6602 259.344 19.7617H262.801C262.871 20.3555 263.078 20.8203 263.422 21.1562C263.766 21.4844 264.207 21.6484 264.746 21.6484C265.254 21.6484 265.691 21.4922 266.059 21.1797C266.426 20.8594 266.609 20.4922 266.609 20.0781C266.609 19.5547 266.461 19.1328 266.164 18.8125C265.875 18.4922 265.426 18.2148 264.816 17.9805C264.184 17.7539 263.578 17.5273 263 17.3008C262.43 17.0742 261.91 16.7773 261.441 16.4102C260.98 16.0352 260.613 15.5664 260.34 15.0039C260.074 14.4414 259.941 13.7344 259.941 12.8828C259.941 12.1875 260.07 11.5469 260.328 10.9609C260.586 10.375 260.934 9.875 261.371 9.46094C261.816 9.04688 262.332 8.72656 262.918 8.5C263.512 8.27344 264.137 8.16016 264.793 8.16016Z" fill="#E7E515"/>
<path d="M160.58 46.6086L158.698 41.1812C158.644 41.0205 158.575 40.7451 158.491 40.355C158.407 39.9648 158.319 39.4867 158.227 38.9207C158.128 39.4638 158.032 39.9534 157.94 40.3894C157.849 40.8178 157.78 41.1047 157.734 41.25L155.921 46.6086H160.58ZM149.885 53L156.277 36.2012H160.385L166.868 53H162.783L161.417 49.4314H154.911L153.741 53H149.885ZM174.479 53.0344C173.071 53.0344 171.859 52.5601 170.841 51.6116C169.801 50.6554 169.231 49.4888 169.132 48.1118V36.5454H172.448V48.0659C172.448 48.5555 172.643 48.9609 173.033 49.2822C173.431 49.5959 173.913 49.7527 174.479 49.7527C175.052 49.7527 175.538 49.5767 175.936 49.2249C176.334 48.873 176.533 48.4867 176.533 48.0659V36.5454H179.849V48.1118C179.734 49.4888 179.164 50.6554 178.139 51.6116C177.106 52.5601 175.886 53.0344 174.479 53.0344ZM187.953 36.511C188.581 36.511 189.174 36.6219 189.732 36.8438C190.29 37.0656 190.784 37.3792 191.212 37.7847C191.648 38.1901 191.996 38.6759 192.256 39.2419C192.524 39.808 192.685 40.508 192.738 41.3418H189.353C189.353 40.8216 189.223 40.4391 188.963 40.1943C188.703 39.9495 188.34 39.8271 187.873 39.8271C187.475 39.8271 187.162 39.9342 186.932 40.1484C186.703 40.3626 186.588 40.6342 186.588 40.9631C186.588 41.4145 186.718 41.7778 186.978 42.0532C187.238 42.321 187.682 42.5428 188.309 42.7188C189.984 43.2236 191.205 43.8815 191.969 44.6924C192.734 45.4956 193.117 46.5627 193.117 47.8938C193.117 48.6741 192.979 49.3855 192.704 50.0281C192.436 50.663 192.065 51.2061 191.591 51.6575C191.117 52.1012 190.562 52.4416 189.927 52.6787C189.292 52.9159 188.611 53.0344 187.885 53.0344C187.188 53.0344 186.527 52.9159 185.899 52.6787C185.272 52.4416 184.725 52.105 184.259 51.6689C183.792 51.2253 183.413 50.7013 183.123 50.0969C182.84 49.4926 182.671 48.7506 182.618 47.8708H186.003C186.072 48.4522 186.274 48.9074 186.611 49.2363C186.947 49.5576 187.38 49.7183 187.907 49.7183C188.405 49.7183 188.833 49.5653 189.193 49.2593C189.552 48.9456 189.732 48.5861 189.732 48.1807C189.732 47.6681 189.587 47.255 189.296 46.9414C189.013 46.6278 188.573 46.3562 187.976 46.1267C187.357 45.9049 186.764 45.683 186.198 45.4612C185.639 45.2393 185.131 44.9486 184.672 44.5891C184.22 44.2219 183.861 43.7629 183.593 43.2122C183.333 42.6614 183.203 41.9691 183.203 41.1353C183.203 40.4544 183.329 39.8271 183.582 39.2534C183.834 38.6797 184.174 38.1901 184.603 37.7847C185.039 37.3792 185.544 37.0656 186.117 36.8438C186.699 36.6219 187.311 36.511 187.953 36.511ZM198.49 53V39.8616H195.851V36.5454H204.538V39.8616H201.807V53H198.49ZM207.306 53V36.5454H213.973C215.365 36.6602 216.54 37.2339 217.496 38.2666C218.467 39.3146 218.953 40.55 218.953 41.9729C218.953 43.0821 218.636 44.0957 218.001 45.0137C217.381 45.9163 216.57 46.5704 215.568 46.9758L219.091 53H215.522L210.565 44.6465V53H207.306ZM210.565 44.0269H213.939C214.428 43.9351 214.834 43.6941 215.155 43.304C215.476 42.9215 215.637 42.4778 215.637 41.9729C215.637 41.4527 215.476 41.0014 215.155 40.6189C214.834 40.2288 214.428 39.9878 213.939 39.896H210.565V44.0269ZM232.038 46.6086L230.156 41.1812C230.102 41.0205 230.033 40.7451 229.949 40.355C229.865 39.9648 229.777 39.4867 229.685 38.9207C229.586 39.4638 229.49 39.9534 229.398 40.3894C229.307 40.8178 229.238 41.1047 229.192 41.25L227.379 46.6086H232.038ZM221.343 53L227.735 36.2012H231.843L238.326 53H234.241L232.875 49.4314H226.369L225.199 53H221.343ZM240.59 53V36.5454H243.975V49.8101H248.048V53H240.59ZM250.805 53V36.5454H254.19V53H250.805ZM267.206 46.6086L265.324 41.1812C265.271 41.0205 265.202 40.7451 265.118 40.355C265.034 39.9648 264.946 39.4867 264.854 38.9207C264.754 39.4638 264.659 39.9534 264.567 40.3894C264.475 40.8178 264.406 41.1047 264.36 41.25L262.547 46.6086H267.206ZM256.512 53L262.903 36.2012H267.011L273.494 53H269.409L268.044 49.4314H261.538L260.367 53H256.512Z" fill="#E7E515"/>
</svg>
